/* XPM */
static char *result[] = {
/* columns rows colors chars-per-pixel */
"32 32 36 1 ",
"  c #946B03",
". c #986D04",
"X c #9C7205",
"o c #9A7308",
"O c #A17606",
"+ c #A47907",
"@ c #A27708",
"# c #A57A09",
"$ c #AA7D0A",
"% c #AE810B",
"& c #B3850D",
"* c #B7890F",
"= c #B98A0F",
"- c #B18411",
"; c #BD8D10",
": c #BF9011",
"> c #C49413",
", c #C89714",
"< c #CA9915",
"1 c #CC9C18",
"2 c #D09E17",
"3 c #D3A117",
"4 c #D5A219",
"5 c #DAA61A",
"6 c #DEAA1C",
"7 c #E2AD1D",
"8 c #E6B11F",
"9 c #E9B31F",
"0 c #E4AF21",
"q c #E3B120",
"w c #EBB620",
"e c #EEB821",
"r c #F3BC23",
"t c #FAC225",
"y c #FCC529",
"u c None",
/* pixels */
"uuuuuuuuuuuu;>>><<24uuuuuuuuuuuu",
"uuuuuuuuu=*=*>>><122467uuuuuuuuu",
"uuuuuuu$&$&=>>,<>><255770uuuuuuu",
"uuuuuu#$$$,2<>>>1,>>=>478wuuuuuu",
"uuuuu+#$,7>>*=>&6<254>&,8wwuuuuu",
"uuuuX+$32$$$**>><<24576=;8weuuuu",
"uuuoX#5,+$$*>>>>,2<<2779,&8rruuu",
"uuoXX3,X+$>=$*=&22262279w>*rrruu",
"uu.o>4XX%:$%&=>><24568<8we&1rtuu",
"u..#8+X+:O#%$>>><24579919rw#9tyu",
"u .,<.o;OO##$$&><>>,159r3rr,,ttu",
"u .wX.#&XO+. .&><=X %59r7wreOrtu",
"  &6  ;.XO$+ +=><2$.,89rt3rt$7ty",
"  ;, .=..O#+ +>><1% <89rr5rt,1ty",
"  1& .%.XO$+ +>><1% <89rt5et5:ty",
"  5$=&$$XO#+ ..OOOX <99897557&ty",
" .7$=&$$+O$+ @*>>,$ ,79997367*ty",
" .2$.X$..O#+ +=><1& ,9rrt5rt5=ty",
"  >> .*.XO$+ +=>,2$ ,99rt3rt>2ty",
"  $7 .=.XO#O +>><2#.>9err3ry&7ty",
"u .wX.O#XOX..o#>>%++$>9r58rwOttu",
"u .,>.X>OO$$&==><24579e91rr>>rtu",
"u..O8OXO>O$$&=;>,23578929rw$wtyu",
"uu..>5XX$>$$*==><24577<79r*,rruu",
"uu.oX4,X+$>;%;==425541699<=rrruu",
"uuuoX$5,+$%*:>>,,<,,5689,&9eruuu",
"uuuuX@$13&%&*;;>,134556==89ruuuu",
"uuuuu+#$>4,**;:-5<155,&,89wuuuuu",
"uuuuuu$$%*,3<,>><,,=;,508wuuuuuu",
"uuuuuuu$$&&*>>,,,,,24566quuuuuuu",
"uuuuuuuuu&-*;;>><123556uuuuuuuuu",
"uuuuuuuuuuuu;;>,,124uuuuuuuuuuuu"
};
