/* XPM */
static char *result[] = {
/* columns rows colors chars-per-pixel */
"16 16 153 2 ",
"   c #936902",
".  c #936A02",
"X  c #946C07",
"o  c #956B03",
"O  c #966B02",
"+  c #966C03",
"@  c #996F04",
"#  c #9A6F05",
"$  c #9B7104",
"%  c #9A7105",
"&  c #9C7005",
"*  c #9E7305",
"=  c #9D7306",
"-  c #9E7306",
";  c #9E7405",
":  c #9F7405",
">  c #A07506",
",  c #A17506",
"<  c #A17607",
"1  c #A27706",
"2  c #A27607",
"3  c #A37707",
"4  c #A47807",
"5  c #A57807",
"6  c #A07509",
"7  c #A1760A",
"8  c #A47808",
"9  c #A57908",
"0  c #A67B08",
"q  c #A77A09",
"w  c #A77B09",
"e  c #A97B0B",
"r  c #A97D09",
"t  c #AB7D09",
"y  c #A87D0B",
"u  c #AA7D0A",
"i  c #AA7E0A",
"p  c #AD800B",
"a  c #AF810B",
"s  c #AF830B",
"d  c #AE810C",
"f  c #AF820C",
"g  c #AF830C",
"h  c #B2840C",
"j  c #B2850D",
"k  c #B5870E",
"l  c #B6870E",
"z  c #B6880D",
"x  c #B6880E",
"c  c #B7880E",
"v  c #B98A0F",
"b  c #BA8B0F",
"n  c #B88910",
"m  c #BA8A10",
"M  c #BB8B10",
"N  c #BB8C10",
"B  c #BC8C10",
"V  c #BC8D10",
"C  c #BE8E10",
"Z  c #BE8E11",
"A  c #BE8E12",
"S  c #BF9011",
"D  c #C09011",
"F  c #C09111",
"G  c #C19111",
"H  c #C29211",
"J  c #C19112",
"K  c #C19212",
"L  c #C29212",
"P  c #C39312",
"I  c #C39313",
"U  c #C49313",
"Y  c #C39412",
"T  c #C49412",
"R  c #C59412",
"E  c #C59512",
"W  c #C49513",
"Q  c #C69513",
"!  c #C79613",
"~  c #C79514",
"^  c #C79614",
"/  c #C79714",
"(  c #C89613",
")  c #C89714",
"_  c #C99715",
"`  c #C99814",
"'  c #C99815",
"]  c #CB9915",
"[  c #CB9A15",
"{  c #CA9916",
"}  c #CB9A16",
"|  c #CC9A14",
" . c #CC9B15",
".. c #CC9A16",
"X. c #CC9B16",
"o. c #CD9B16",
"O. c #CE9C16",
"+. c #CF9D16",
"@. c #D09D17",
"#. c #D39F17",
"$. c #D29F18",
"%. c #D2A017",
"&. c #D3A017",
"*. c #D1A019",
"=. c #D2A018",
"-. c #D3A018",
";. c #D3A019",
":. c #D5A118",
">. c #D4A119",
",. c #D4A219",
"<. c #D6A318",
"1. c #D6A319",
"2. c #D5A31A",
"3. c #DAA619",
"4. c #D8A41A",
"5. c #D8A51B",
"6. c #DCA71B",
"7. c #DDA91A",
"8. c #DDAA1B",
"9. c #DEAB1C",
"0. c #E0AB1C",
"q. c #E0AC1C",
"w. c #E0AC1D",
"e. c #E2AE1D",
"r. c #E2AE1E",
"t. c #E3AF1E",
"y. c #E4AF1D",
"u. c #E4AF1E",
"i. c #E5B11E",
"p. c #E7B21F",
"a. c #E8B21F",
"s. c #E8B020",
"d. c #E8B220",
"f. c #E8B221",
"g. c #EAB420",
"h. c #EBB420",
"j. c #EAB520",
"k. c #ECB724",
"l. c #EDB724",
"z. c #EFB821",
"x. c #EFB822",
"c. c #F4BD22",
"v. c #F3BD25",
"b. c #F5BD25",
"n. c #F5BE24",
"m. c #F7C025",
"M. c #FAC225",
"N. c #FBC225",
"B. c #FBC327",
"V. c #FAC425",
"C. c #FBC427",
"Z. c #FBC527",
"A. c None",
/* pixels */
"A.A.A.A.A.l A W ] ;.5.A.A.A.A.A.",
"A.A.A.e a L Q R ^ ( [ q.s.A.A.A.",
"A.A.6 j ` v m C $.:.1.E 9.k.A.A.",
"A.& i F w z M D [ +.%.i. .q.v.A.",
"A.@ ) ; f t k J o.4.t.8.x.G n.A.",
"o B 2 g * 1 < B K h X.z.r.e.2.N.",
"  U + p - 5 - J ..8 =.z.f.m.' Z.",
"  I q r - 5 @ s c > ,.z.p.g.O.B.",
". J , 0 - 5 = J X.8 ,.h.u.a.[ C.",
"X U + 9 - 8 $ J ..4 >.z.w.m._ V.",
"O n i u - 3 w b P N X.z.6.j.-.M.",
"A.# { : g t k S ..4.y.7.z.W b.A.",
"A.% d D w M Z H O.#.<.i.| u.c.A.",
"A.A.7 a ! x m V @.:.&.Y 6.l.A.A.",
"A.A.A.y a L ~ ^ / ^ o.0.d.A.A.A.",
"A.A.A.A.A.k C T } *.3.A.A.A.A.A."
};
