/* XPM */
static char *result[] = {
/* columns rows colors chars-per-pixel */
"128 128 77 1 ",
"  c #8F6701",
". c #8F6907",
"X c #8F6A09",
"o c #916701",
"O c #946C07",
"+ c #986E04",
"@ c #926C0A",
"# c #9C7205",
"$ c #97700C",
"% c #9C740C",
"& c #9B7611",
"* c #9E7811",
"= c #A17606",
"- c #A47907",
"; c #A97C07",
": c #A27708",
"> c #A67909",
", c #AA7D09",
"< c #A37C13",
"1 c #AA7F11",
"2 c #AE810B",
"3 c #B3840D",
"4 c #B6890E",
"5 c #BA8B0F",
"6 c #AD8414",
"7 c #AB8418",
"8 c #B18614",
"9 c #B58913",
"0 c #BD8D10",
"q c #B08618",
"w c #B78D1A",
"e c #B88E18",
"r c #BF9011",
"t c #BC901D",
"y c #C08F11",
"u c #C49312",
"i c #C89714",
"p c #C79815",
"a c #CC9B16",
"s c #C2961C",
"d c #C6991C",
"f c #CB9D1C",
"g c #D19E17",
"h c #D29F18",
"j c #CFA11B",
"k c #D3A117",
"l c #D5A219",
"z c #D9A61A",
"x c #DDA91B",
"c c #E2AD1D",
"v c #E6B11F",
"b c #E9B41F",
"n c #D4A623",
"m c #D8A621",
"M c #DCAB21",
"N c #DDAD28",
"B c #DFB02C",
"V c #E0AD20",
"C c #E1AF2A",
"Z c #E6B120",
"A c #ECB520",
"S c #EFB820",
"D c #E3B328",
"F c #ECBA2C",
"G c #F3BC23",
"H c #F8BF24",
"J c #F2BF2C",
"K c #EFBE31",
"L c #F7C024",
"P c #FAC225",
"I c #F5C12C",
"U c #FBC52B",
"Y c #FCC82E",
"T c #F6C431",
"R c #FBC631",
"E c #FBC832",
"W c None",
/* pixels */
"WWWWWWWWWWWWWWWWWWWWWWWWWWWWWWWWWWWWWWWWWWWWWWWWWWWWWWWWWsssssddpffdffdWWWWWWWWWWWWWWWWWWWWWWWWWWWWWWWWWWWWWWWWWWWWWWWWWWWWWWWWW",
"WWWWWWWWWWWWWWWWWWWWWWWWWWWWWWWWWWWWWWWWWWWWWWWWWWWteueuruuuupuipiaaaafghfjlnWWWWWWWWWWWWWWWWWWWWWWWWWWWWWWWWWWWWWWWWWWWWWWWWWWW",
"WWWWWWWWWWWWWWWWWWWWWWWWWWWWWWWWWWWWWWWWWWWWWWwwe550yyyyyyuuupuiiipaaaagaghhhkllnWWWWWWWWWWWWWWWWWWWWWWWWWWWWWWWWWWWWWWWWWWWWWWW",
"WWWWWWWWWWWWWWWWWWWWWWWWWWWWWWWWWWWWWWWWWWWW9944550055yyryuuuupuiiapiaaahaakhllllzmmWWWWWWWWWWWWWWWWWWWWWWWWWWWWWWWWWWWWWWWWWWWW",
"WWWWWWWWWWWWWWWWWWWWWWWWWWWWWWWWWWWWWWWWW9343440505yyyyyyyuuuuiiupifaaagagghhhllzlzzzxNWWWWWWWWWWWWWWWWWWWWWWWWWWWWWWWWWWWWWWWWW",
"WWWWWWWWWWWWWWWWWWWWWWWWWWWWWWWWWWWWWWq38343444505555yryyuuuiuiuipipaiaaggghhllllllzzzzzMNWWWWWWWWWWWWWWWWWWWWWWWWWWWWWWWWWWWWWW",
"WWWWWWWWWWWWWWWWWWWWWWWWWWWWWWWWWWWWq3323344344900yy5yryu5uuuuiiiiiaaiaaaghhhhlzzlzzzzxxxcxNWWWWWWWWWWWWWWWWWWWWWWWWWWWWWWWWWWWW",
"WWWWWWWWWWWWWWWWWWWWWWWWWWWWWWWWWW623,33333444444055y5ry0uuuuuuiiiaiaaaggahhhhhhllzzzzzxxxxcVCWWWWWWWWWWWWWWWWWWWWWWWWWWWWWWWWWW",
"WWWWWWWWWWWWWWWWWWWWWWWWWWWWWWWW222222,33343344505000rryyuuuuuuiuppaaaaaagggkglzlzzlzzzxxxxccccNWWWWWWWWWWWWWWWWWWWWWWWWWWWWWWWW",
"WWWWWWWWWWWWWWWWWWWWWWWWWWWWWWW122222233333444444000500uyuuppiiiuppuuiaagakkkkzkzlzzzzxxxxxxccccZWWWWWWWWWWWWWWWWWWWWWWWWWWWWWWW",
"WWWWWWWWWWWWWWWWWWWWWWWWWWWWW1,,,222233333343445050ypaaaaaaiaipuiuuuuyrr5yuiaggzzlzzzzxxxcxcxcccvcDWWWWWWWWWWWWWWWWWWWWWWWWWWWWW",
"WWWWWWWWWWWWWWWWWWWWWWWWWWWW,,,,;22232233334445yuihhkakagaaiiiupiuuuuuyryr555yyikkzzzxzzxxxcxccccvvDWWWWWWWWWWWWWWWWWWWWWWWWWWWW",
"WWWWWWWWWWWWWWWWWWWWWWWWWW1>>,2,2222222333345iggzhkhgkakaaaaiiipuuiuuyyyy5y5555445ikzzxzxcxcccccvvvvbDWWWWWWWWWWWWWWWWWWWWWWWWWW",
"WWWWWWWWWWWWWWWWWWWWWWWWW<>,>>,,,;,2223333yachgzzhkggggaiiupuiuiiiiiiiiuyy5555544344ygxzxxxcxcccvcvZvADWWWWWWWWWWWWWWWWWWWWWWWWW",
"WWWWWWWWWWWWWWWWWWWWWWWW>>>>>>,222222423ukzzchhczhgiuu505yyyuuuuiiiaiaaakggiu5544443335azcxcxvxvcvvZbbbAWWWWWWWWWWWWWWWWWWWWWWWW",
"WWWWWWWWWWWWWWWWWWWWWWW::>,>,>,,;;2222ykxxzzhchhiy555550yyyuur4uklaiaaggaghhzhgu5433333,5axccccxcvvvvbZAAFWWWWWWWWWWWWWWWWWWWWWW",
"WWWWWWWWWWWWWWWWWWWWW<=>:>>,>,,,2222rkxxxxzzgiy,354550y50rrrr;2ukvxfaaakggghhlzzzgy5;,,,225kxcvvcvvZvbvZASFWWWWWWWWWWWWWWWWWWWWW",
"WWWWWWWWWWWWWWWWWWWW<==::>>,>,,,222pcxxxxxkpy4,55345505yrrru3#2ykvbkiaaagggglllzzzcha5,y2222yxxvcvvZbvAAAASDWWWWWWWWWWWWWWWWWWWW",
"WWWWWWWWWWWWWWWWWWW*:=-::>>>>,,,2rxccxxxku225,31344550r50yru3#3ykcbkaakakghhllzlzzcclcgy3,3,22axcvvZvbZAvSASFWWWWWWWWWWWWWWWWWWW",
"WWWWWWWWWWWWWWWWWW*====:>->>>,,,accccxzp2222,,543445505y0yrur#2ukvbaaakakhhhlllzzzzzclcci3,,2;2rcvvZbbAAvASSGFWWWWWWWWWWWWWWWWWW",
"WWWWWWWWWWWWWWWWW*#==-=>>>>>,>5xvxvcxi,322323344445455y5ryyyu53ykzaaaaagggahgzlzzzczczccccu3,,;;3lvAvbbSSASSSSFWWWWWWWWWWWWWWWWW",
"WWWWWWWWWWWWWWWW*##===-:>>,,,0cvvvxz5,,,2222,3,43545555y0yyyuuyuaaiaiaaaggghhgzlzzzxzczcccck3,;,>,hVvbSvbSASSGGFWWWWWWWWWWWWWWWW",
"WWWWWWWWWWWWWWW&##====-::>->gcvvvxi,,>,,22223334,44y5yy5yyyyuuiuiiaaaagakghhzhzzzzxzxxzccccvci,;,-;uvvvAASASSSSSWWWWWWWWWWWWWWWW",
"WWWWWWWWWWWWWWW####====>=>,avvAvx0>>;,>3;2223,34y4y,5555ryuuiiuiuiiuiaagkhhhhzlzzzxzxzcccccvZvg,>>>=uvvAvAAASSSGGWWWWWWWWWWWWWWW",
"WWWWWWWWWWWWWW$####===-::>lAvvvz,>>1>>,,,333;y,y5,55yyiaakaiiiiiiuuuu5yyyiakklllzlclzxccccccZvbc4-;:-5vbbSSSSSSGGJWWWWWWWWWWWWWW",
"WWWWWWWWWWWWW%#####===->,kSvvvk,::>>>,,,,,,,,,4,3yyaaggaiuuuuuuuipifaiiuy555ugzzzclczcxccccvZvbbc5>>#-rvbAASSSSSSGIWWWWWWWWWWWWW",
"WWWWWWWWWWWW%+##=##===:-zbSAvi--:>>>>>,,,33333,yigcgiyy5yrryyuuiiiiaaaghklguy34igcclczcccccbvbbbbbu>--#3ZAASSSGGGGHFWWWWWWWWWWWW",
"WWWWWWWWWWWW#######===:abbSva-==:>>>,,,3,,,,;yiczay,435555ruuuuuiiiaagagkllzlay33yhczczcccccvvbbSbvu--#:uAASSSSSSGGGWWWWWWWWWWWW",
"WWWWWWWWWWW++######==-aAbbvi====>>>>;;;;,335acha,43434555yyyuu5uaaiaaaagkkhzzzcgi4,yzxcccccbbcbbAAASr-:%:rSSbGSSGGGGJWWWWWWWWWWW",
"WWWWWWWWWW%+##+#=##==5SSSbg=#===>>:>;,,;3,yzca,,,,43445y5yyyru,0zcaaaaggkkzhzzgczci,4accccccbbbbZAASAu--#-kSSbGGGGGGGTWWWWWWWWWW",
"WWWWWWWWWW+++###=#==4bGbbk###===::>>;;;;5gci,,y,5,5344555yrry2>yzSaaaaggzzhzzzczcccxy;5lcccbvvbbAbASSS5###-zGSbHGGGGHHWWWWWWWWWW",
"WWWWWWWWW++++######=vSbSz;##====:>>>;;;yccy;,,,,,43144555y5ru4>5zAaagagghkzhzzzczcxcck22kccbvvbbAAASSSb3=##2bSGbGGGGHHIWWWWWWWWW",
"WWWWWWWW&++++++=##-kSSbb-###=====-;->2fvp2,,,,3,,444441yyyyyyu4yhgiaagggklllzxxxxxxvvvvr2rcvbvbAAAASSGGv>###rbbGGGGGHHHTWWWWWWWW",
"WWWWWWWW+O+++%#+##5SSSb5#####====:>>2avu-;>,,,,3,4,4455yyyyyuuuiaiaaaaagkkllzzzxxxvxvvvvr%rxvvbZZAbSSSSGk####kGGGGGGGHHIWWWWWWWW",
"WWWWWWW@O++++####-ASSSi+#####==:-->2xv3=->,>,2,21434,4555yyyyuiyiiiaaaagklzkzzzxcccvcvvvbz22xZbbAbASSSGGLp###-bGGLGLHHHLTWWWWWWW",
"WWWWWWW++O++##+##fGGSv######=====-2lc4-=->,,,,22,333y55555yyyuyiiiiaagggklkzzzxxxxcxvvvbbbz-4cbZAAASSSGSLb2###sbGbGLJHHLIWWWWWWW",
"WWWWWW$+++++++##4SGSA2O#####%===--xb2#-=>>,;,22,33333400y5yyyuuiiiiaaggglkhczzxzxxcvcvvbbbGc>2vbAAASSGSGGGx%###kGGGLGLHLPUWWWWWW",
"WWWWWWOOOO++####zGSGf+++#####===-kv4##==>;;;,,22,33944055yyyuyuuuiiaaaaggzkkzzxxccccvvZbbbGbz:rvAAAASSSGGGGu###2LbSLHLHLPIWWWWWW",
"WWWWW@+O+O++###0GGGv#O+#+###====aS2#-#-->>;;,,2323334455yyyyyuuiiiiaaggkhhhczzzxxcxvvvbbbbbGSx-0ZvASSGGSGGHS:###kLGGHHHLPPRWWWWW",
"WWWWW+@OO++++#:xGGGu+O++#####==4Gu###--->>;;,3,,333349905y5yyuuiiiiaaagkhkkkzzxxxxccvbbbbbbbSSi#zbASSSSGGGHLd#O#2SLGJHHLPPUWWWWW",
"WWWWWOOOO++++#yHGGz#+++##%###-3bg###===>>>;;;,,,23834455050yyuuuiiiaaaggklllzzxzxccccvvbAASbGGGr=xSSSSGSGHHHG2#+#aGGHHHHLPPWWWWW",
"WWWW$OO++O++++VGGG0O+O++######zb#+####==>;>>,,,52234445505uruuuiiiiaagggkklzzxxzxccvvvvvvAASbGGv:3SbSSGGGGJHLl#O+,GGGHHPPPPRWWWW",
"WWWWOOOOO+++#1HHGvOO+++#####-uS3++##====>>>>;;,,222233345505yuuuiiiiiiiippjjkkjkkzlzzxvvbSASGGGGz#aSSSSGGGGHLH>#++xHHHLIHPPPWWWW",
"WWWWoOOO+O++#hGHHuOOOO++####>vj#+###=#>=>:OO++++#O#+++++#++:uuuiiiia;+####+###+#######avbbASbGGGG0>ASSGSGGHHLPpOOO0GJHLLPPPPWWWW",
"WWW+o+oO+O++,SGGv=o+OOO++###kS#++####=>=>:+OOOOOO OOOOOOoOO:uuuuiiia#+OOOOOOOOOOOOOO++jvAAASSSGHGS:9SGGGGGGHLIS-###vHHHLPPPPRWWW",
"WWWOoO+O++++uHHHgoOOO@#####-Lp+O+###=#==>:::#OOOOOOOOOOO>245yuuuiiiauyy,OOOOOOOO O#4akvvZAASSGSGHHp#ZSSGGGHHPPPuOO+iGHGLPPPPUWWW",
"WWWOOOOOO+++ZHHG-OOO+++####kv#+O++###===>>>,;;OOOOOOOO#35yrryuuiiiiaagagr#OOOOOOOOkxvvvvAAASGSSGGHS>uGGSGGHLHPPV++O,HHLPPPPPPEWW",
"WW@oOOOOO+@:HHHZOOOO+OO#+#2Au+O++####=>=>>,,,,+OOOOOOO-505rruuuiiiiaaaggk2OOOOOOO*vxvvbvAAASSGGGGHHa#VGGGJGLHPPL=O++AHHPLPPUPYWW",
"WW@oOOOO+O+yHHHi@oOO+O+++#aLOO++#####>>#>>,,,,:oOOOOOO;y5yuyyuuuiiiaaaghhyOOOOOOO3ccvvZbbAASGSGGGLLL%rSGGJHHPPPPr++OhHHLIPPPPYWW",
"WWooOOOO+O+zHHG2OoOOO++###bzOOO++###=#=>>>>,,,:OOOOOoO,5y50yyuuiuiiaagahhyoOOOoO 4ccvbvbbZSbSSGGGLLP9>SGGGGGHPPPz++O9HHLLPPPUPWW",
"WW@OOOOO++:SHHV#oOOOO+++#2L2OOO++####=>=>>>,,,>OOOOOOO,y0y0uyyuuiiiaaaghhuOOOO+OOrcccvZbbASSSGGGGLLPxOxSGGHHHPPUG>OO:ALHPLPPPUWW",
"W@ooOOOOOO3HHHl@oOOO+O+#+fv#OO+++###=#==>>>,,,>oOOOOOO,y05y5uuuiiiiaagaghiOOOOOOOrxcvvZvbSbSSGSGHLPPS2rLGGHHHPPPP0OO+xHHPPPPPUEW",
"W@ooOOOO+OiIHH0ooOOOOO++=ZaoOOO++####>>#>>,;,,=OOOOOOO1y00yuuyuuiiaaaaaghuOOOOOOOrxccvvbbASSGSGGHHHLPf-AGGLLHLPPPlOOOiHPPPPPPPYW",
"WOOoOOOOOOlHHP>ooOOO+++#2L2 O+OO+###=#>>>>>,,,=OOOOOOO,y00yyyuuiiiiaaagghuOOOOOOO0cvvvZbbAbSSGGGGHPIPxOxGLGLHPPPPv+OO4HHPPPPPPYW",
"W@oOOOOO++ALHGOooOO+O+++uPOOOO+++####>#>>>;,,,:oOOOOOO,y0yyyuuuuiiiaggaghiOOOOOOOrcccZZvAAASSSGGHHPPPP+sGIHLHPPPPP#+O:HPPPPPPYYW",
"WoooOOOO++LLLAoooOOO++++zvooOOO++#####==>;;,,,:OOOOOO+,y000yuyuiiiiiaagggioOOoOOO0cccvvbbAASSGGGGHHPPP,2GGGHPPPPPU=OO+HHPPPPPPYW",
"WooooOOO+:PHHz oOOOOO+++GgooOO+++####=>=>>>;,,>oOOOOOo350yyy0uuuiiiaaaaghuOOOOOOOrccvvvbbbASSGSLHHLIPPu=LLLGLLPPPP4OOObLPPPPPPYW",
"@oooOOO+O3PHPa ooOOO+O+#P5ooOOO++###=#==>;>;,,>OOOOOO@3550ryuyuiiiiagagghuoOOOOO rccvvvbbAASSSJSGHLPPPgobLLLLLPUUPrOOOcLPPPPPPYY",
"XOoOOOOOO0PHH0oooOOO+++>P,OooOO++###===>>;;;;,:OOOOOOO305yyyuuuuuiiaaaakhuOOOOOOOrxvxvZbAAASSGGLGHHPPPxovGLLPPPPPPjOOOjLPPPPPPYY",
"@oooOOOOOuPHP9oooOo+OO+8L:oOOO+++####===>>>;,;:OOOOOOO,055ryruuiiiaaagkkhiOOOOOO rvxvvZbbAASSGSLHHHLPPA+zGLLLPPPPYjOOOjLPPPPPPYY",
". oOOOO++aPHH2ooO#:++O+yS#oOOOO++####===>>>,,,:oOOOOOO,555550uruuiuippfakyOOOOOOOrcvvvvvbAASSGGSHLLPPPH#jGGLGbGPPPb#OOpLPPPPPYPY",
"@O oOOOOOaPHL>oo>yai=++iv+ooOO--+####==>>>,;,,:+o@OOOO++##################OoOOOOO0xvcvZbbSASSSGLbSLPPPL>pLLxrrzbPPcOOOrLPPPPPPPY",
". oOOOOO+kPPH>.+,ygcz#+ivOoO#2uz,###====>>;;,,>ooOOOOOOOOOOOoOOOOO@OOOOOOOOOOOOOO0ccvvZbvAASSGSu4aALPPP>rLx23rzbPPb+OOpPPPPPPPYY",
". oO OOOOlPHG>o#,ygcS,+acoooO2pzx####===>>;;,,>oOOOOOOOOOOOOOOOOoOOOOOOOOOOOOOOoOycccvZbbSSbSSv>5abPPPU2rLp#4rkbPPv#OOrPPPPPPYPY",
"@ooooOO+OlILH>o+20kxS2Ofvo O+2ixz###=#==--;-22#OOOOOOO>2333334445555555yy4OOOOOO rccvvZbbAAbSGc:4aZPPPP2uGu#4uzvLUb#OO5PLPPPPPUY",
"@OoOOOOO+gPHH>oO20gcx#+pvO oO,iz3####:==-;-222%OOOOOOO20555uyuuupiiaagkhkuOOOOOOO0ccvvvbbAbGSGSa4kALPPP>uGM>3ulbLPv#OO0LPPPPUPPY",
"@ooOOOOO+aPHH,oo>5aa##+ubOoOo+-=####==;:->2-22##OOOOOO200ryyyuuiiiaiaaggkuOOOOOOOrvxvvZbbSbGSSGGAALPPPL:fGLxruzAPPxOOOrLPPPPPPUY",
"@ooooOOO+iLHH3ooO#=++O+rA# OOOO++####===>>-2#2%OOOOOO.2005yyyuuupiiaaaghkuoOOOOOOrxvxZZbbSbbGSSGHHLPPPG%aGHHSAGPUPcOOopLPPPPPPYY",
"  ooOOOOOuLPH0 oo+o+O++3L-  OOO++###:===>;;,>2#OOOOOOO2055uyyuuiuiaaaaahlrOOOOOOOrcccvvbbSASGSGGHHLPPPb#zGHLPPPPPPkOOOfLPPPPPPYY",
"XoooOOOO+5LPHy @OoOO+O+,U2ooOO#O+####===>>>;;2%+OOOOOO2r0uryuyuuiiiaaaghlrOOOOO O0cccvZvbAASSGGGHLLPPUvovGGLHPPPPYjO+ lLPPPYPPYY",
"@ooOOOO+O3PHHaoooOOOO+##P5OoOOOO+####=:>>>>,;2#OOOOOOO355r5yuuuiiiaiaaghlpOOOOOOo0ccvAAvbASSSSGGGHPPPPk FHHHHPPPPPpOO cLPPPPPPYY",
"WooooOOOO>LPHl ooOOO+OO#Sk OoO#+++####:>>>>,22-OOOOOOO355yyyyuuuiiaaagahlrOOOOOOOycccvvvbAASSGGGGHPPPPr#GGHHHPPPPP5#OOAPPPPPPPYW",
"WooOOOOO++HHHAooo+OO++++zv O OO++####===>>>,,,#OOOOOOO655u0yuuuiiiiaaaggkuOOOOOOO0ccvvAvAASSSGGGHHHPPP>8GGLLHPPPPU-OO+LLPPPPPPPW",
"W@ooOOOOO+AHHGOoooOOOO+#pLO O+O++####===>>>,,,-OO OO O355yu5yuuiiiiaaaggkuOOOOOOO0cccvvvZAASASGGGHHPPP#pGLGLHPPPPL+OO-LLPPPPPPYW",
"W@ooOOO+OOzHHH1 @OOOO+++3P2O O+++####==>>>2>,,=oOOOOOO3ru5yyyuuuiiiaagagku@OOOOOO0ccvAVvvSASGGGGHHHIPx#MSLHLPPPPPb+OO5LLPPPPPYYW",
"W@ooOOOO+OiHHH0 oOOO+O+##bs OO+++###====>>->,3=OOOOOOO2455y5yuuiiiaaaaggkioOO OOO5cccvAvvAASSSGGGHPPUu:AGGGHPPPPPkOOOpLLPPPPPYYW",
"W@oooOOO++1HHHhooOo+OO++#aZOOOO++####===-;;;222OOO OOO2400yuyuuuiiiaakagkrOOOOOOO5cccAvbbAASSGGGGHPPG>rSGIJHHLPPP4OOOxLLPPPPPPYW",
"WWoOOOOOO+>SHHA#oOOO+++##2L2OO++#####===#2>222OOOOOOOO250yyyuuuiuiiaaakgkrOOOOOOO9ccccAvSAvSSGSGHHLLxOxGSLHLLPPIG;+O2bLLPPPPYPWW",
"WWooOOOO+O+lHHH1OOOO++++##blOOO++####=>=2%2#22#OOOOOOO2400yyyuuuiiigaaakk3OOOOOOO,ccVAAvvSSSGSGGGHPP9#GGGGLLLHPPx++O4LPPPPPPYYWW",
"WW@oO+OO+O+yHGHaooO+OO+###aG+O+++###====##222#OOOOOOOO#300yyyuuuiiiiifkkj#OOOO Oo+xcvvvvbvSSSSGGGHHG#uGSGLGLPPPPu++OkLLPPPPPYYWW",
"WW@oOOOO+O+>HHHAOOOO+O+#+#>SrOO++####==>>>;;:OOOOOOOOOO+15yyuuuiiiigiaiy#OOOOOOOOO>ixcAvvASSSGSGHHLp%VSGGGJHLPPP#+OOAHHLPPPPPEWW",
"WW@OoOOO+O++cHGG>OOO++++###aZ#O++####===>++OOOOOOOOOOOOO+#+=5uuuiiiu::#OOOOOoOOOOOoO=>4cAAASSSGGGHS>rSGGGGHHLPPZ#O+;HHJHPPPPPWWW",
"WWW@OOOOO+++sHHGaoOOOO+####>GaO++####====OOoOOOOo+OOOOOOOOOO5uuiiii5oOOOOO++Oo+OOOOOOO-cAAASGSGGHHi+ZGSGGGGHLPP0+OOaJHHLHPPPYWWW",
"WWWOOOOO+O++,SHGA#OO+++++%##kS#O++##===>-====:--;>>>>;,,,2,35uuiiiiu4445y3yyyyyyyyyiuuivvASSSGGGGS#0SSSGGLHHHPb-++=vHHHLPPPPUWWW",
"WWWWo+O++O%++hHGGioOO+++####>Aa#+###====>>;;,,221y,y,yyy5yryyuuuiiiaagggklllzzxxxcccvvvvZAASSSGGG5>vSSGGSGLLLPa#+O5LGLHLPPPUWWWW",
"WWWWOoOO++O++3GHGc+O+O+#+####rS4+####===>;,;,,22,,y,5y,15yyyyuuiiiiaaaagkllzzzxxxxccvvvbAAASGSGGz$abSSSGGLJLPL:+++zHHLHHLPPPWWWW",
"WWWW@OO+O++++#VGGG0OOO++####%=zA=+####=>>>;;,,22,y5145yy5yyyyyuuiiiaaaggklllzzxxxccccvZbAAASSGGS=4GbSGSGGGHHLa#O#;GGGHHPPPPRWWWW",
"WWWWWOOOO+++++uGGHx+O++#+####-3ba###====>>;,,2,2,5,5,5y15u5uuuuiuiaaagagkklzlzxxxcccvvvbAAASSSSr:xbGSSSGGGGHS2##+gGHHLJLPPPWWWWW",
"WWWWW@OO+O++++:cGSGuO+++###=#==ySi##:===>>>,,,,,y,41yy5y5yryuuuiiiiaaggghzhzzzxxxccccvvbbbSSSSi#lbbSSSGSGLGLf##+2AGGHHLLLPUWWWWW",
"WWWWW$+OO++++#+yGGSZ#O+#####=#==gG,##==>>>>,,,3,,,,yy,5555ryyuuuiiiaigaghhgzzzzxxcccvvvbbbbSGx#0bbASSGSGGGLS%##OlGGGJHHLPPRWWWWW",
"WWWWWW@O++++#++#xGGSi++++####===>gb3#===>>;,,,,3,4,4,4y5yyryyuuiiiiggagggzhzzzxxxxccvvvvbbSSz-0cSASSSSGGGGGu###2GGGHHHGLPIWWWWWW",
"WWWWWW$+OO+++###4GSGS2+#+####===:;xv;==>>>;;,,3,4,43y45555yyyuuuiiiiiaghhhgzzzzzxcccvvvbAbSc;,vAAAbSSSGSGLx-###zSGGGJHHHLUWWWWWW",
"WWWWWWW+O++++#+##aSGSc=+#####===:>;hv3>=>>,;,,33,4454555yyyyruupiiiaagahhczklcczccccccvbAbz>4cvAAAASSSGGGS>#$#rSGGGGHHHHIWWWWWWW",
"WWWWWWW&OO++####=>bGGSu++###=#==:>;,xc3=;>,,,,3,,34145555yyyruuuiiiaaaghggllllzzzxccvbvbbz,,cZvAAAAASSSSSi###%AGGGGGJHHHUWWWWWWW",
"WWWWWWWW+++++#####ySSSA0####====:>;;;gvu>>,,;,,33333445y55ryuuuuiiaiaaghgllhczczcccccvbvu>ycvvvAZAASSSGGk=##=lGSSGGGHHHIWWWWWWWW",
"WWWWWWWW$++++#+###=gSSSv>#####=::>>>;,gvg;,;,;;3,38344555rryrr5rhhaaagahhhlclzlczcccvvcy;yccZvbAAASSSSAA;###5SSSGGGHHHHTWWWWWWWW",
"WWWWWWWWW+++$######-xGbSz-##=#-=--->>225xc52,,2223434455ryyyy4;5zSaaaaakhhhzzzzzxxcvxk22kccvZvbbZAASSSv3=##,bGSGGGGHJHLWWWWWWWWW",
"WWWWWWWWWW++##+####=5bGbbz##===-:->,>>>29kxf2,22233344555yryu2;rzSgaaaaghkzgzzzcxccxu23zcccvZbbZAAASSS0=%=-zbGbGSHGGGHWWWWWWWWWW",
"WWWWWWWWWW+#+####====5bSAbf-=#==:>>>>>2>22uzxi322343445y5yryur;5lcaagaakhczzzzzccxp23acccccvZvbbAAAAA0===#lSSSSGSGGGHTWWWWWWWWWW",
"WWWWWWWWWWW$+#######=-gbAbbi#===%>>>2>222223axzu4234445555rrruruaaaaaaggkkgzzzzzp32rzxxcccvvZvbZZAASu:===ubbSGSGGGGHLWWWWWWWWWWW",
"WWWWWWWWWWWW#+#####===:aSbbbi;#-=>>,;,,,222333azxa5434555yyuyuuuiiaaagggkhllhgy33uzxxxcxcccvvvbAbbbu>===ubbGSSbGGSGLWWWWWWWWWWWW",
"WWWWWWWWWWWW%####=#==::;zbbbba--=>>>>,,322223335ihzgiy555yyyuuuiiiiaaaagkkgiy45ukxxzxxxvcccvbvbbbbu>=:=3bbGbSSGSGGGIWWWWWWWWWWWW",
"WWWWWWWWWWWWW%####=====->kbbbva2>>>>;>,,;222,33344yighgaiuuuuuuuiaiaaiiyyy5yighzzxzxxxxccccvvvvbv5>:==0vbSSSSSGGSGFWWWWWWWWWWWWW",
"WWWWWWWWWWWWWW#####==-::-2zbvvvl,>>>>,,,222233333454yyiaaagaiiiiuuuyyyyyyuaghhzhzzzxxxxccccvbvbc3->:-4vAbSbSSSbGGGWWWWWWWWWWWWWW",
"WWWWWWWWWWWWWWW####==--:-:,avZZvcy;;;;,,,,5,33344344yy,yyyyupuuiuiiiiaaaggghzhhczzzxxxxcxvvvvvp2;---uvbZbASSGSSSGWWWWWWWWWWWWWWW",
"WWWWWWWWWWWWWWWW##:#===:->>,avvvccu;;;,3,,,,1,334445yyyyyyyyuupuiiiiaagaaghhhzzhzzxxxxcccccvcp2;>2>rvbbbbSASbGGGKWWWWWWWWWWWWWWW",
"WWWWWWWWWWWWWWWW%#====:>:>>>>5xvcccz4,,,4,,433334455y1yyyyyyuuuuaiaaaagagghhhzhzzzxzxxxcxvvk22-;-2lZvbZAAASSGbGFWWWWWWWWWWWWWWWW",
"WWWWWWWWWWWWWWWWW<#=====:>>,,,5xccccxi,,,,,3,334,444yy,4yyyuu52ukxaaaagaghhhzhzzzxxxxxxcvxu222;;3kvZbbAAbASASSFWWWWWWWWWWWWWWWWW",
"WWWWWWWWWWWWWWWWWW%:===>>>>>;,22kcccclcyy,,,333355,yyyyyyyyuy=2ugccaaaggakhllllzzzxxxxcxp222,,,0ccvZbbZbAAASSFWWWWWWWWWWWWWWWWWW",
"WWWWWWWWWWWWWWWWWWW*===::>>,>>2>,iccccccgu,5333344yyy,yy5yyy3#2ylcSgiagaaghlzllzzzzxxxk5222222accvvvvbZAbAASFWWWWWWWWWWWWWWWWWWW",
"WWWWWWWWWWWWWWWWWWWW<=::>>,>>>>2,,;gccchchcu53334441y5yyy5yy3#2ulcSgaaaggghlkzkzzxzkp5223222uzcccbvZbbZAbSAFWWWWWWWWWWWWWWWWWWWW",
"WWWWWWWWWWWWWWWWWWWWW<:::>>>;>2;,,,;4gczcchcki54,y4y5y,yyyyyy;2ylccaiaaaahhklkzzkkur2322225accccMbvZbbAZbSFWWWWWWWWWWWWWWWWWWWWW",
"WWWWWWWWWWWWWWWWWWWWWW1::>>>,,,,,22223ugxzzxzzkkir55505rryyyuy4ekkaaiagaggkkkkau533333325kxxccccvvvZvAAAAWWWWWWWWWWWWWWWWWWWWWWW",
"WWWWWWWWWWWWWWWWWWWWWWWW:>>>>,,,;2222224ukxzzzzlkzaauy0rryyuuuipiiiaaaagagaiuy554493335axxxczccccvvZvZZAWWWWWWWWWWWWWWWWWWWWWWWW",
"WWWWWWWWWWWWWWWWWWWWWWWWW<>>>,,,,2222233335alzlzzgzagagaiiuuuuiuiiiiiiuuur0055544489uazzxcxcccccvvZZvbDWWWWWWWWWWWWWWWWWWWWWWWWW",
"WWWWWWWWWWWWWWWWWWWWWWWWWW7-,,,,,,2222233334ruklzzkgkggaaaaaiiiuiuuuyuyrr005555450uhzzxxxxxcccccxvZZZAWWWWWWWWWWWWWWWWWWWWWWWWWW",
"WWWWWWWWWWWWWWWWWWWWWWWWWWWW,,,,,222,32333344445yaagggaaaaaaiiiiiuuuyyrryyy555ualzzzzzzxxxzcccccvcvMWWWWWWWWWWWWWWWWWWWWWWWWWWWW",
"WWWWWWWWWWWWWWWWWWWWWWWWWWWWW1,,,,223,332443344555ruuiagaaaiiiiiiuuuuurryyuiaglklllzzzxzxxccccccvvDWWWWWWWWWWWWWWWWWWWWWWWWWWWWW",
"WWWWWWWWWWWWWWWWWWWWWWWWWWWWWWW,;222,23333444444550r0ryyuuuiiiiiiuiipiiaaggglgllzlzzzxzxxzczccccDWWWWWWWWWWWWWWWWWWWWWWWWWWWWWWW",
"WWWWWWWWWWWWWWWWWWWWWWWWWWWWWWWW6322,3233334344555050rryyyuuuuiiiiiiiaakgaggglllllzzzzxxxccczccVWWWWWWWWWWWWWWWWWWWWWWWWWWWWWWWW",
"WWWWWWWWWWWWWWWWWWWWWWWWWWWWWWWWWW62233333344449550005yyyuuuupiiiaiiaaahgagggkkzlzlzzzzxxxxcMDWWWWWWWWWWWWWWWWWWWWWWWWWWWWWWWWWW",
"WWWWWWWWWWWWWWWWWWWWWWWWWWWWWWWWWWWWq2333334344055000yyuryyuuuuiiiifaaaaagggkkkllzzzzzxxxxxBWWWWWWWWWWWWWWWWWWWWWWWWWWWWWWWWWWWW",
"WWWWWWWWWWWWWWWWWWWWWWWWWWWWWWWWWWWWWW683343445455y05yyyyuuuuuuiuiiaaihagaggklllllzzzzxzMNWWWWWWWWWWWWWWWWWWWWWWWWWWWWWWWWWWWWWW",
"WWWWWWWWWWWWWWWWWWWWWWWWWWWWWWWWWWWWWWWWWq343449555y5y5yryyuuppuiiiiaaaaagggkglllzlxzxNWWWWWWWWWWWWWWWWWWWWWWWWWWWWWWWWWWWWWWWWW",
"WWWWWWWWWWWWWWWWWWWWWWWWWWWWWWWWWWWWWWWWWWWW9990555eyyyyrruuuuiiiiifaaaahahhkhzhzlznWWWWWWWWWWWWWWWWWWWWWWWWWWWWWWWWWWWWWWWWWWWW",
"WWWWWWWWWWWWWWWWWWWWWWWWWWWWWWWWWWWWWWWWWWWWWWWe0y505yyyuruuuuuiiiiifaaaaahhkglzmnWWWWWWWWWWWWWWWWWWWWWWWWWWWWWWWWWWWWWWWWWWWWWW",
"WWWWWWWWWWWWWWWWWWWWWWWWWWWWWWWWWWWWWWWWWWWWWWWWWWWtrrryruuuiuiuuaaadaaaalljnWWWWWWWWWWWWWWWWWWWWWWWWWWWWWWWWWWWWWWWWWWWWWWWWWWW",
"WWWWWWWWWWWWWWWWWWWWWWWWWWWWWWWWWWWWWWWWWWWWWWWWWWWWWWWWWdtdtddddddfffjWWWWWWWWWWWWWWWWWWWWWWWWWWWWWWWWWWWWWWWWWWWWWWWWWWWWWWWWW"
};
