/* XPM */
static char *result[] = {
/* columns rows colors chars-per-pixel */
"48 48 45 1 ",
"  c #946C07",
". c #996E04",
"X c #936D09",
"o c #9C7205",
"O c #9A7109",
"+ c #A17607",
"@ c #A37907",
"# c #A37708",
"$ c #A67A09",
"% c #AA7D09",
"& c #AE810B",
"* c #B3850D",
"= c #B6880E",
"- c #BA8B0F",
"; c #B18310",
": c #B58A11",
"> c #BD8D10",
", c #BF9012",
"< c #BE9018",
"1 c #C39312",
"2 c #C89714",
"3 c #C79817",
"4 c #CC9B15",
"5 c #CD9D19",
"6 c #D09E16",
"7 c #D19F18",
"8 c #CFA01C",
"9 c #D3A117",
"0 c #D6A219",
"q c #D9A61A",
"w c #DDA91B",
"e c #E1AD1D",
"r c #E5B11F",
"t c #E9B31F",
"y c #DBAB22",
"u c #E7B220",
"i c #EBB520",
"p c #EFB921",
"a c #F4BC23",
"s c #F4BF29",
"d c #F7C125",
"f c #FAC225",
"g c #FCC62B",
"h c #FEC82A",
"j c None",
/* pixels */
"jjjjjjjjjjjjjjjjjjjj>11125578jjjjjjjjjjjjjjjjjjj",
"jjjjjjjjjjjjjjjj::>>1-11244677qyjjjjjjjjjjjjjjjj",
"jjjjjjjjjjjjj&**==>>11122456777wwwyjjjjjjjjjjjjj",
"jjjjjjjjjjjj&&&*=:>>1122212477qqwweejjjjjjjjjjjj",
"jjjjjjjjjj%%&&&*=246662211111116qweeuujjjjjjjjjj",
"jjjjjjjjj+%%&&=4q0611112422621==10weeepjjjjjjjjj",
"jjjjjjjj$$%%&4wq1==---=%e466q774=*1wuuitjjjjjjjj",
"jjjjjjj+++$=ww1&%==--11*q46677qew2&&7tuipjjjjjjj",
"jjjjjjo++@1r9&&&%-%--111244660eqeew=$4tipajjjjjj",
"jjjjjoo++2t3+%%&*%112211222226qweeeu2+2tipajjjjj",
"jjjjOoo+2t2o+%%&>41--11144406416eeetu2+4ppasjjjj",
"jjjj.Oo=t4o++$&41%-%--1%e446qqe42eurta1+wpaajjjj",
"jjj..O$iwoo@+&6&%%*--1112460qqeee-wttpa*$iaafjjj",
"jjX..o4i+oo+&4+$%%%----12660qeeetr1euppu+>aaafjj",
"jj  .$a1ooO@9@+$%***111124606eeetip-taaa4.raffjj",
"jj ..qu..oo2+o+%%%%-%1112666qqeeutpt1taaa#:aafjj",
"j   $a1..o*1oo++......%12-.ooooo4ipa9wpad3opffgj",
"j  .1a. ..2.oo+%%.  #-12244%  #etipaa,aafa.3affj",
"j   eq  .%- .++$%o  %111246- .%ruipad4eaff%=ffhj",
"X  .a1  .2. oo+$%.  %-112461 .%rttpaaf4aaf7 affj",
"   $a%  .6  .++$%o  %1112441  =euipaaf>affe effh",
"   *a+  .2  .++$%+  %--12441  =euipafd1aafa qffh",
"   >f ..+-  .++$%o. %-11124-  =eitpaaf8iaaf 6fff",
"   1a -q%% 1+++$%o  .         =eutpw0fwe=qf.4ffh",
"   1a >q$&.-$o+$%o  %>=1122-  ;rtupw0fwe=qf 4fff",
"   >a . $- .oo+$%o  &-11244-  =euipaaf9iadf 4fhh",
"   *ao  O4  oo@$%o  &>-22461  :euipadf1aafa qfhh",
"   Xf%  .4 .oo@$%o  *>112461  =ettpaaf1affe efhh",
"j  oa>  .1..o+$$%o  &-12246>  =euipaaa2aaf6.affh",
"j   ee  .&-..o+$%o  $111246=  %ettpaa9eaff**affj",
"j   1a. ..4.oo+oo    +=12-$    *6paaf1aaap 4affj",
"j   #a1 .o*=oo@++$%%%*=121>11224qtta6qaaf6.tffgj",
"jj .oqt .O+4+o+$%-%%11111440qwertiii2iaaa#1paajj",
"jj  .%p1.oo$9+$$%%--;11114600wwetii-iiaa2.taaajj",
"jjO .o4p+oo+&4$$%%%1--1124600weett1wipai#1pasgjj",
"jjj .O$eqoo++&6&%%%%-1112460qwwew>wtiia%$tpasjjj",
"jjjj.oo*t4o++%&11$%1%11%w6600qw61ertii1#qpasjjjj",
"jjjjOooo1t2+%@%&121%111144600416eeeti2#2paasjjjj",
"jjjjjO+++2t3@@%&%1122112221126wwwett1#2ippajjjjj",
"jjjjjjo++@,rq&%&%-%%1112226600qweew-%2tippjjjjjj",
"jjjjjjj+@@%:ww1&%==-111%q4667qqww3&*qruipjjjjjjj",
"jjjjjjjj@@@%*4wq2==---1%e66600q2=&1wetupjjjjjjjj",
"jjjjjjjjj%%%&&=4q7411111444241==10weeipjjjjjjjjj",
"jjjjjjjjjj$%&&**>1474221111-->20wweerujjjjjjjjjj",
"jjjjjjjjjjjj&&**==>>11222224900qqweejjjjjjjjjjjj",
"jjjjjjjjjjjjj&**=:=11111224660qqwwejjjjjjjjjjjjj",
"jjjjjjjjjjjjjjjj:>=>>1122246600yjjjjjjjjjjjjjjjj",
"jjjjjjjjjjjjjjjjjjj<1>133557jjjjjjjjjjjjjjjjjjjj"
};
