<svg width="24" height="24" viewBox="0 0 24 24" fill="none" xmlns="http://www.w3.org/2000/svg">
<g clip-path="url(#clip0_606_44)">
<path d="M12 24C18.6274 24 24 18.6274 24 12C24 5.37258 18.6274 0 12 0C5.37258 0 0 5.37258 0 12C0 18.6274 5.37258 24 12 24Z" fill="#0F0B16"/>
<path d="M12.1 2.7998C7.1 2.7998 3 6.8998 3 11.8998C3 16.8998 7.1 20.9998 12.1 20.9998C17.1 20.9998 21.2 16.8998 21.2 11.8998C21.2 9.4998 20.2 7.1998 18.5 5.4998C16.8 3.7998 14.5 2.7998 12.1 2.7998Z" stroke="#3454dd" stroke-width="1.5154"/>
</g>
<defs>
<clipPath id="clip0_606_44">
<rect width="24" height="24" fill="white"/>
</clipPath>
</defs>
</svg>
