<svg width="26" height="26" viewBox="0 0 26 26" fill="none" xmlns="http://www.w3.org/2000/svg">
<g clip-path="url(#clip0_607_60)">
<g opacity="0.5">
<path d="M20.1217 2.33008H5.81648V4.11823H20.1217V2.33008ZM5.81648 23.788H20.1217V21.9998H5.81648V23.788ZM20.1217 5.90639H5.81648C4.83299 5.90639 4.02832 6.71106 4.02832 7.69455V18.4235C4.02832 19.407 4.83299 20.2116 5.81648 20.2116H20.1217C21.1052 20.2116 21.9099 19.407 21.9099 18.4235V7.69455C21.9099 6.71106 21.1052 5.90639 20.1217 5.90639ZM12.9691 8.36511C14.0778 8.36511 14.9808 9.26813 14.9808 10.3768C14.9808 11.4854 14.0778 12.3885 12.9691 12.3885C11.8604 12.3885 10.9574 11.4854 10.9574 10.3768C10.9574 9.26813 11.8604 8.36511 12.9691 8.36511ZM17.4395 17.5294H8.49871V16.1883C8.49871 14.6952 11.476 13.9531 12.9691 13.9531C14.4622 13.9531 17.4395 14.6952 17.4395 16.1883V17.5294Z" fill="white"/>
</g>
</g>
<defs>
<clipPath id="clip0_607_60">
<rect width="26" height="26" fill="white"/>
</clipPath>
</defs>
</svg>
