<svg width="24" height="24" viewBox="0 0 24 24" fill="none" xmlns="http://www.w3.org/2000/svg">
<g clip-path="url(#clip0_607_390)">
<mask id="mask0_607_390" style="mask-type:luminance" maskUnits="userSpaceOnUse" x="0" y="0" width="24" height="24">
<path d="M24 0H0V24H24V0Z" fill="white"/>
</mask>
<g mask="url(#mask0_607_390)">
<path d="M12.3 17.3999C13.5703 17.3999 14.6 18.4296 14.6 19.6999C14.6 20.9702 13.5703 21.9999 12.3 21.9999C11.0297 21.9999 10 20.9702 10 19.6999C10 18.4296 11.0297 17.3999 12.3 17.3999Z" fill="#3454dd"/>
<path d="M12.3 2C13.5703 2 14.6 3.02974 14.6 4.29999C14.6 5.57025 13.5703 6.6 12.3 6.6C11.0297 6.6 10 5.57025 10 4.29999C10 3.02974 11.0297 2 12.3 2Z" fill="#3454dd"/>
<path d="M12.3 9.7002C13.5703 9.7002 14.6 10.7299 14.6 12.0002C14.6 13.2704 13.5703 14.3002 12.3 14.3002C11.0297 14.3002 10 13.2704 10 12.0002C10 10.7299 11.0297 9.7002 12.3 9.7002Z" fill="#3454dd"/>
</g>
</g>
<defs>
<clipPath id="clip0_607_390">
<rect width="24" height="24" fill="white"/>
</clipPath>
</defs>
</svg>
