<svg width="24" height="40" viewBox="0 0 24 40" fill="none" xmlns="http://www.w3.org/2000/svg">
<path d="M18.1668 12.3999H4.43346V14.1166H18.1668V12.3999ZM4.43346 32.9999H18.1668V31.2832H4.43346V32.9999ZM18.1668 15.8332H4.43346C3.4893 15.8332 2.7168 16.6057 2.7168 17.5499V27.8499C2.7168 28.7941 3.4893 29.5666 4.43346 29.5666H18.1668C19.111 29.5666 19.8835 28.7941 19.8835 27.8499V17.5499C19.8835 16.6057 19.111 15.8332 18.1668 15.8332ZM11.3001 18.1936C12.3645 18.1936 13.2314 19.0606 13.2314 20.1249C13.2314 21.1892 12.3645 22.0561 11.3001 22.0561C10.2358 22.0561 9.36888 21.1892 9.36888 20.1249C9.36888 19.0606 10.2358 18.1936 11.3001 18.1936ZM15.5918 26.9916H7.00846V25.7041C7.00846 24.2706 9.86671 23.5582 11.3001 23.5582C12.7335 23.5582 15.5918 24.2706 15.5918 25.7041V26.9916Z" fill="#3454dd"/>
</svg>
