<svg width="24" height="40" viewBox="0 0 24 40" fill="none" xmlns="http://www.w3.org/2000/svg">
<path d="M21.025 23.116L18.771 13.009L12 14.156L5.229 13L2.975 23.116H1V25.116H23V23.116H21.025ZM6.771 15.294L12 16.183L17.229 15.283L18.976 23.116H5.024L6.771 15.294Z" fill="#3454dd"/>
<path d="M13 29.1162H11V27.1162H2V30.8542C2.08087 33.2729 4.08016 35.1833 6.5 35.1542C8.77023 35.0686 10.6519 33.3665 10.964 31.1162H13.036C13.349 33.3657 15.2304 35.0667 17.5 35.1522C19.9198 35.1813 21.9191 33.2709 22 30.8522V27.1162H13V29.1162ZM9 30.8542C8.90894 32.1678 7.81677 33.1869 6.5 33.1869C5.18323 33.1869 4.09106 32.1678 4 30.8542V29.1162H9V30.8542ZM15 29.1162H20V30.8542C19.9089 32.1678 18.8168 33.1869 17.5 33.1869C16.1832 33.1869 15.0911 32.1678 15 30.8542V29.1162Z" fill="#3454dd"/>
</svg>
