<svg width="24" height="40" viewBox="0 0 24 40" fill="none" xmlns="http://www.w3.org/2000/svg">
<path fill-rule="evenodd" clip-rule="evenodd" d="M19.1401 25.3398C19.1801 25.0398 19.2001 24.7298 19.2001 24.3998C19.2001 24.0798 19.1801 23.7598 19.1301 23.4598L21.1601 21.8798C21.3401 21.7398 21.3901 21.4698 21.2801 21.2698L19.3601 17.9498C19.2401 17.7298 18.9901 17.6598 18.7701 17.7298L16.3801 18.6898C15.8801 18.3098 15.3501 17.9898 14.7601 17.7498L14.4001 15.2098C14.3601 14.9698 14.1601 14.7998 13.9201 14.7998H10.0801C9.84011 14.7998 9.65011 14.9698 9.61011 15.2098L9.25011 17.7498C8.66011 17.9898 8.12011 18.3198 7.63011 18.6898L5.24011 17.7298C5.02011 17.6498 4.77011 17.7298 4.65011 17.9498L2.74011 21.2698C2.62011 21.4798 2.66011 21.7398 2.86011 21.8798L4.89011 23.4598C4.84011 23.7598 4.80011 24.0898 4.80011 24.3998C4.80011 24.7098 4.82011 25.0398 4.87011 25.3398L2.84011 26.9198C2.66011 27.0598 2.61011 27.3298 2.72011 27.5298L4.64011 30.8498C4.76011 31.0698 5.01011 31.1398 5.23011 31.0698L7.62011 30.1098C8.12011 30.4898 8.65011 30.8098 9.24011 31.0498L9.60011 33.5898C9.65011 33.8298 9.84011 33.9998 10.0801 33.9998H13.9201C14.1601 33.9998 14.3601 33.8298 14.3901 33.5898L14.7501 31.0498C15.3401 30.8098 15.8801 30.4898 16.3701 30.1098L18.7601 31.0698C18.9801 31.1498 19.2301 31.0698 19.3501 30.8498L21.2701 27.5298C21.3901 27.3098 21.3401 27.0598 21.1501 26.9198L19.1401 25.3398ZM12.0001 27.9998C10.0201 27.9998 8.40011 26.3798 8.40011 24.3998C8.40011 22.4198 10.0201 20.7998 12.0001 20.7998C13.9801 20.7998 15.6001 22.4198 15.6001 24.3998C15.6001 26.3798 13.9801 27.9998 12.0001 27.9998Z" fill="#3454dd"/>
</svg>
