<svg width="24" height="24" viewBox="0 0 24 24" fill="none" xmlns="http://www.w3.org/2000/svg">
<path d="M15.2006 10.4998H20.3006V5.49983H18.3006V6.69983C15.8006 3.89983 11.7006 3.19983 8.40062 4.89983C5.10062 6.59983 3.30062 10.2998 4.20062 13.8998C5.10062 17.4998 8.40062 19.9998 12.2006 19.9998C14.4006 19.9998 16.5006 19.1998 18.0006 17.6998L16.6006 16.2998C14.8006 18.0998 12.0006 18.5998 9.70062 17.4998C7.40062 16.3998 5.90062 13.9998 6.10062 11.4998C6.30062 8.99983 8.10062 6.89983 10.6006 6.19983C13.1006 5.49983 15.7006 6.39983 17.2006 8.49983H15.3006V10.4998H15.2006Z" fill="#3454dd"/>
</svg>
